<?xml version="1.0" encoding="utf-8"?>
<!-- Generator: Adobe Illustrator 18.1.0, SVG Export Plug-In . SVG Version: 6.00 Build 0)  -->
<!DOCTYPE svg PUBLIC "-//W3C//DTD SVG 1.1//EN" "http://www.w3.org/Graphics/SVG/1.1/DTD/svg11.dtd">
<svg version="1.1" id="Layer_1" xmlns="http://www.w3.org/2000/svg" xmlns:xlink="http://www.w3.org/1999/xlink" x="0px" y="0px"
	 viewBox="0 64 960 432" enable-background="new 0 64 960 432" xml:space="preserve">
<path fill="#3A356D" d="M116.6,65C108.5,65,4,64,4,64v11.9c0,0,15-1.2,19.4,1.6s9.7,6.5,9.7,15.4s0,139.2,0,139.2s-2,7.7-7.3,10.9
	c-5.3,3.2-11.3,3.6-14.6,4c-3.2,0.4-5.7,0-5.7,0v11.3h131.2c0,0,91.5-4,91.5-95.1C228.3,72.3,124.7,65,116.6,65z M137.8,235.3
	c-4.9,2.4-22.9,9.8-40,6c-12-2.7-18.5-19.6-18.5-19.6V85.5c1.2-4.9,9.8-4.9,9.8-4.9s31.9,0.2,49.3,9.9s46.6,28.4,45.6,74.5
	C183.3,204.3,150.3,229.2,137.8,235.3z"/>
<path fill="#3A356D" d="M282.4,128.4c0,0-36,8.2-39.5,9.4c-3.5,1.2-6.1,7.3-2.3,9.9c3.8,2.6,6.7,3.2,6.7,8.5c0,5.3,0,80.7,0,80.7
	s0,6.7-3.5,8.5c-3.5,1.8-13.7,3.5-13.7,3.5v8.2H307v-8.8c0,0-13.4-0.6-15.2-2.6c-1.8-2-4.7-1.8-4.7-19.9s0-51.4,0-51.4
	s4.4-21,16.7-21s7.3,7.6,14.3,12.3c7,4.7,20.2,2.3,23.4-4.1c3.2-6.4,8.2-24.8-10.8-32.4c0,0-3.5-1.5-9.4-1.5s-14.3,3.8-17.8,6.7
	c-3.5,2.9-17.5,20.8-17.5,20.8l-2.2,2.2v-28.5C283.8,128.7,284.8,130.7,282.4,128.4z"/>
<path fill="#3A356D" d="M932.2,181.3c-18.1-6.1-44-10.3-45.3-25.7c-0.9-10.2,11.4-14.6,19.9-14.9c7.9,0.3,16.4,3.5,22.5,12
	s8.8,14.6,8.8,14.6h7.9V131h-8.8c0,0,0.3,5.8-0.6,7c-0.9,1.2-2.6,2.3-4.7,0.3s-9.1-10.8-27.2-10.8c-4.4,0-28.9,0.6-39.8,14.9
	c-10.8,14.3-10.8,21.9-10.8,28.1c0,6.1,1.5,24.8,22.8,33.6c21.3,8.8,37.7,12,42.1,15.2c4.4,3.2,6.7,7.6,6.4,11.7
	s-5.3,17.2-19.6,17.5c-14.3,0.3-25.4-6.1-30.4-12.9c-5-6.7-9.9-19-9.9-19h-8.5v20.5c0,0-0.1,6.9-6.8,9.5c-4.5,1.8-15.4,2.8-18.1-2.4
	c-2.6-5.3-2.6-9.1-2.6-9.1v-77.2c0,0-4.4-30.4-38.6-30.4S746.9,155,746.9,155s-6.7-27.2-38.6-27.2c-31.9,0-42.7,27.2-42.7,27.2
	v-27.8c0,0-29.8,5.6-42.7,9.6c-11.6,3.7-9.9,8.8-6.7,12.3s12,8.5,12,13.2c0,4.7-0.6,71.9-0.6,71.9s-2,8.8-5.8,11.7
	c-3.1,2.4-13.4,4.7-18.7,3.8c-5.3-0.9-17.2-6.4-17.2-12.3s0-83.3,0-83.3s-1.8-26.3-52.6-26.3s-55.8,24.6-55.8,30.1
	c0,5.6,2.3,17.5,18.1,17.5c15.8,0,18.1-22.2,19.6-24.3c1.5-2,4.4-10.2,16.7-10.2c12.3,0,14.9,10.5,14.9,16.4s0.6,11.4-1.5,14.6
	c-2,3.2-39.8,14-59.9,29.5c-20.2,15.5-26.6,28.1-36.5,33.9c-9.9,5.8-20.5,9.9-33.6,7.6s-25.7-17.2-27.2-27.5
	c-1.5-10.2-1.1-23.3-1.1-23.3s35,0.2,42.9-0.4c7.9-0.6,36.2,2,36.2-18.4s-11.4-46.5-62-45.3c0,0-63.1,6.1-63.1,65.8
	s54.4,69.6,65.8,69.6s28.1-1.5,46.5-15.2c13.8-10.3,18.4-18.4,18.4-18.4s-0.3,31.9,33.3,31.9c0,0,7.6,2.3,22.8-5.8
	c15.2-8.2,19-14.3,19-14.3s0.6,10.5,10.8,14.9c10.2,4.4,28.6,4.4,28.6,4.4l22.5-2h74.2v-9.6c0,0-16.1,2-16.1-15.2s0-63.4,0-63.4
	S680,148,691.1,148c11.1,0,19.3,11.7,19.3,17.2s0,70.7,0,70.7s0,6.1-5.3,9.4c-5.3,3.2-11.4,4.4-11.4,4.4v9.4h71.6v-10.2
	c0,0-11.1-0.6-13.7-6.7c-2.6-6.1-3.2-8.8-3.2-14.3c0-5.6,0-52.3,0-52.3s7.3-28.1,25.1-28.1c17.8,0,18.4,18.7,18.4,20.5
	c0,1.8,0,70.2,0,70.2s-0.6,5-5.3,7.3c-4.7,2.3-10.8,3.8-10.8,3.8v9.6h76c0,0,8.6,0.1,12.9-6.7c3.1-5,3.5-4.7,3.5-4.7
	s9.9,15.2,41.5,15.2S960,239.4,960,221S950.4,187.4,932.2,181.3z M408.4,142.1c20.8,0,24.6,20.2,24.6,23.7s2.3,7.6-1.8,9.9
	c-4.1,2.3-22.8,2.9-27.8,2.6c-5-0.3-17.2-0.3-17.2-0.3S383.9,142.1,408.4,142.1z M547,226.3c-0.3,2.9-5,6.7-8.8,9.6
	c-3.8,2.9-8.2,4.1-12,2.9c-3.8-1.2-9.2-4.4-10.5-13.4c-1.5-9.6-0.6-13.7,3.8-20.5c5.7-8.7,26.9-17.2,26.9-17.2
	S547.3,223.4,547,226.3z"/>
<path fill="#EE78A5" d="M0.1,314c0,0,76.4-31.2,204.2-33.5c127.8-2.3,258.8,20.3,302.4,26.5c43.7,6.2,125.1,13.3,158.6,13.4
	c61.6,0.2,141.5-3.9,188.8-10.5c25.9-3.6,85.9-17.7,95.3-20.1c9.4-2.3,10.9,2.3,2.3,7c-8.6,4.7-86.5,33.5-136.4,40.5
	c-49.9,7-136.4,17.9-194.9,15.6c-58.5-2.3-61.6-3.1-61.6-3.1S411.6,334.2,382.8,328c-28.8-6.2-139.9-16.4-174.6-21.8
	c-9.9-1.6-36.8-3.3-36.8-3.3l-9.4,0.6c0,0-14.6-1.8-87.1,3.5C50.7,308.7-2.3,326.5,0.1,314z"/>
<g>
	<path fill="#332F69" d="M131.4,451.3c-1.8,9.6-10,17.3-20.5,17.3H86.4l0.4-2.2c6.4,0,7.8-1.8,9.7-12l5.9-33.5
		c1.9-10.3,1-11.9-5.4-11.9l0.3-2.2h22.3c9.5,0,14.5,6.9,13,15.4c-0.9,5.4-4.9,10-9.1,12.8C129.2,437.5,132.8,443.9,131.4,451.3z
		 M124.1,451.3c1.3-7.5-2.4-13.7-9.1-13.7h-9l-2.7,15.2c-1.9,10.3-1.1,11.9,5.3,11.9h1.5C116.9,464.8,122.8,458.7,124.1,451.3z
		 M106.7,433.8h6.4c5.8,0,11.1-5.2,12.3-11.5c1.1-6.4-2.4-11.6-8.1-11.6h-6.4L106.7,433.8z"/>
	<path fill="#332F69" d="M150.8,466.2c2.6,0,6.6-2.1,9.4-4.7l0.9,2.1c-3.4,3.8-8.5,6.8-13,6.8c-8.5,0-12.8-8.5-11-18.9
		c2.1-10.9,10.5-18.8,17.7-18.8c5.5,0,8.4,4,7.5,8.9c-0.9,5.4-6.9,11.8-19.7,14.5C142.6,462.2,145.1,466.2,150.8,466.2z
		 M157.2,441.5c0.4-2.7-0.5-4.8-3.1-4.8c-4.7,0-9.3,5.6-10.9,14.8c-0.1,0.6-0.2,1.1-0.3,1.6C151.9,451,156.4,445.6,157.2,441.5z"/>
	<path fill="#332F69" d="M177.6,470.4c-8.4,0-12.3-7.7-10.4-18c2.2-12.2,10.9-19.8,17.1-19.8c6.8,0,8.5,4.3,8.1,6.8
		c-0.3,1.6-1.2,3.4-3.4,3.4c-4.2,0-1.1-6.9-5.3-6.9c-3.5,0-8.6,5.5-10.6,16.5c-1.4,8.3,0.8,13.9,7.2,13.9c2.5,0,6-1.5,9.1-4.7l1,2.1
		C186.7,467.8,182,470.4,177.6,470.4z"/>
	<path fill="#332F69" d="M208,470.4c-8.6,0-12.5-8.5-10.7-18.9c2-10.4,10.4-18.8,19-18.8c2.8,0,4.4,0.5,6.7,1.7h5.7l-4.8,27.7
		c-0.4,2.4-0.3,4.2,1.1,4.2c1.1,0,3.3-1.5,4.1-2.3v2.4c-2.1,2.1-4.9,3.6-6.8,3.6c-2.9,0-4.3-1.9-4.5-4.7
		C215.2,468.2,211.2,470.4,208,470.4z M222.2,438.4c-1.1-1.1-3.1-2.6-6.4-2.6c-6.1,0-10.4,7.3-11.8,15.5c-1.5,8.2,0,14.8,5.9,14.8
		c3.9,0,8.1-4,9.2-9.6L222.2,438.4z"/>
	<path fill="#332F69" d="M261.6,469.9c-3.6,0-5-3.1-4.4-7.2l0.2-0.8c-3,4.9-7.5,8.4-12,8.4c-6.9,0-8.9-6.7-7.3-15.4l2.6-14
		c0.4-2.5,0.2-4.3-1.1-4.3c-1.2,0-3.4,1.5-4.1,2.4v-2.5c2-2.1,4.7-3.5,6.7-3.5c3.6,0,5.1,3,4.4,7.1l-2.6,14.3
		c-1.2,6.7-0.5,11,4.4,11c3.4,0,9.3-5,11.2-15.8l2.7-15.3h5.8l-4.8,27.7c-0.4,2.4-0.3,4.2,1.1,4.2c1.1,0,3.3-1.5,4.1-2.3v2.4
		C266.3,468.4,263.4,469.9,261.6,469.9z"/>
	<path fill="#332F69" d="M281,470.4c-6.4,0-9.4-4.2-8.9-7c0.3-1.5,1.4-2.4,2.9-2.4c3.8,0,0.2,6.1,7.2,6.1c3,0,5.3-2.7,5.6-4.9
		c0.5-2.8-1.5-5.9-3-7.2l-3.7-3.6c-2.4-2.3-4-6.1-3.4-9.4c0.7-4.6,4.4-9.4,11.2-9.4c5.6,0,7.3,3.7,7,6.1c-0.2,1.2-1.1,2.1-2.3,2.1
		c-3.6,0-0.5-5.4-5.9-5.4c-2.3,0-4.6,1.8-5.1,4.5c-0.5,2.7,0.6,4.3,3.1,6.8l3.7,3.5c2.7,2.6,4,6.4,3.4,9.6
		C291.6,466.8,286,470.4,281,470.4z"/>
	<path fill="#332F69" d="M313.3,466.2c2.6,0,6.6-2.1,9.4-4.7l0.9,2.1c-3.4,3.8-8.5,6.8-13,6.8c-8.5,0-12.8-8.5-11-18.9
		c2.1-10.9,10.5-18.8,17.7-18.8c5.5,0,8.4,4,7.5,8.9c-0.9,5.4-6.9,11.8-19.7,14.5C305,462.2,307.6,466.2,313.3,466.2z M319.6,441.5
		c0.4-2.7-0.5-4.8-3.1-4.8c-4.7,0-9.3,5.6-10.9,14.8c-0.1,0.6-0.2,1.1-0.3,1.6C314.4,451,318.8,445.6,319.6,441.5z"/>
	<path fill="#332F69" d="M372.5,447.7c2.1-11.2-3.7-11.3-3.2-13.9c0.1-1.2,1.4-2,2.6-2c2.7,0,6.3,3.9,4.3,14.2
		c-4.3,25-30.8,49.9-47.6,49.9c-6.1,0-8.2-2.9-7.8-5.5c0.2-1.3,1.9-3.4,3.2-3.4c2.1,0,1.4,4.4,7.4,4.4c7.5,0,17.5-6.7,25.6-15.9
		c4.1-27.7-0.1-39.2-4.6-39.2c-1.4,0-4,1.6-4.7,2.5v-2.5c2-2.1,4.7-3.5,7.5-3.5c7.8,0,11.1,13.8,8.3,34.7
		C367.9,461.1,371.4,454.1,372.5,447.7z"/>
	<path fill="#332F69" d="M394,470.4c-8.6,0-14.1-8.5-12.4-18.9c2-10.4,10.4-18.8,19-18.8c8.5,0,14,8.4,12.2,18.8
		C411,461.8,402.5,470.4,394,470.4z M400.1,435.8c-6.2,0-10.3,7-11.8,15.7c-1.5,8.6,0,15.8,6.2,15.8s10.2-7.1,11.7-15.8
		C407.8,442.8,406.2,435.8,400.1,435.8z"/>
	<path fill="#332F69" d="M441.6,469.9c-3.6,0-5-3.1-4.4-7.2l0.2-0.8c-3,4.9-7.5,8.4-12,8.4c-6.9,0-8.9-6.7-7.3-15.4l2.6-14
		c0.4-2.5,0.2-4.3-1.1-4.3c-1.2,0-3.4,1.5-4.1,2.4v-2.5c2-2.1,4.7-3.5,6.7-3.5c3.6,0,5.1,3,4.4,7.1l-2.6,14.3
		c-1.2,6.7-0.5,11,4.4,11c3.4,0,9.3-5,11.2-15.8l2.7-15.3h5.8l-4.8,27.7c-0.4,2.4-0.3,4.2,1.1,4.2c1.1,0,3.3-1.5,4.1-2.3v2.4
		C446.4,468.4,443.5,469.9,441.6,469.9z"/>
	<path fill="#332F69" d="M475.3,432.6c4.6,0,5.7,3.8,5.1,6.5c-0.2,1.3-1.3,3.5-4.1,3.5c-1.9,0-3.1-1.5-2.8-3.3
		c0.2-1.4,0.1-2.2-0.9-2.2c-3,0-7.8,6.9-10.5,21.5l-1.7,10h-5.5l4.9-27.7c0.4-2.5,0.2-4.3-1.1-4.3c-1.2,0-3.4,1.5-4.1,2.4v-2.5
		c2-2.1,4.7-3.5,6.7-3.5c3.6,0,4.7,3,4,7.1l-0.5,2.6C467.4,436.2,471.4,432.6,475.3,432.6z"/>
	<path fill="#332F69" d="M502.3,470.4c-6.4,0-9.4-4.2-8.9-7c0.3-1.5,1.4-2.4,2.9-2.4c3.8,0,0.2,6.1,7.2,6.1c3,0,5.2-2.7,5.6-4.9
		c0.5-2.8-1.5-5.9-3-7.2l-3.7-3.6c-2.4-2.3-4-6.1-3.4-9.4c0.7-4.6,4.4-9.4,11.2-9.4c5.6,0,7.3,3.7,7,6.1c-0.2,1.2-1.1,2.1-2.3,2.1
		c-3.6,0-0.5-5.4-5.9-5.4c-2.3,0-4.6,1.8-5.1,4.5c-0.5,2.7,0.6,4.3,3.1,6.8l3.7,3.5c2.7,2.6,4,6.4,3.4,9.6
		C512.9,466.8,507.2,470.4,502.3,470.4z"/>
	<path fill="#332F69" d="M525.7,409.8l0.3-2.2l12.3-2.6l-9.9,56.9c-0.4,2.4-0.3,4.2,1.1,4.2c1.1,0,3.3-1.5,4.1-2.3v2.4
		c-2.1,2.1-4.9,3.6-6.8,3.6c-3.6,0-5-3.1-4.4-7.2l7.2-40.9C531.5,411.6,530.9,409.8,525.7,409.8z"/>
	<path fill="#332F69" d="M552.2,466.2c2.6,0,6.6-2.1,9.4-4.7l0.9,2.1c-3.4,3.8-8.5,6.8-13,6.8c-8.5,0-12.8-8.5-11-18.9
		c2.1-10.9,10.5-18.8,17.7-18.8c5.5,0,8.4,4,7.5,8.9c-0.9,5.4-6.9,11.8-19.7,14.5C544,462.2,546.5,466.2,552.2,466.2z M558.6,441.5
		c0.4-2.7-0.5-4.8-3.1-4.8c-4.7,0-9.3,5.6-10.9,14.8c-0.1,0.6-0.2,1.1-0.3,1.6C553.3,451,557.8,445.6,558.6,441.5z"/>
	<path fill="#332F69" d="M582.4,466.2c2.6,0,6.6-2.1,9.4-4.7l0.9,2.1c-3.4,3.8-8.5,6.8-13,6.8c-8.5,0-12.8-8.5-11-18.9
		c2.1-10.9,10.5-18.8,17.7-18.8c5.5,0,8.4,4,7.5,8.9c-0.9,5.4-6.9,11.8-19.7,14.5C574.1,462.2,576.7,466.2,582.4,466.2z
		 M588.8,441.5c0.4-2.7-0.5-4.8-3.1-4.8c-4.7,0-9.3,5.6-10.9,14.8c-0.1,0.6-0.2,1.1-0.3,1.6C583.5,451,587.9,445.6,588.8,441.5z"/>
	<path fill="#332F69" d="M611.2,417.8h5.7l-2.8,16.5c2.6-1.2,4.3-1.7,7.1-1.7c8.6,0,14.2,8.4,12.4,18.8
		c-1.8,10.4-8.6,18.9-17.3,18.9c-3.2,0-6.1-2.1-7.7-4.7l-2.6,14.6c-1.9,10.3-0.8,11.9,6.1,11.9l-0.4,2.2h-22.1l0.5-2.2
		c6.8,0,8.3-1.6,10.2-11.9l6.6-37.2c-2.3,4.5-4.8,8.4-7.7,11.8l-1.7-1.2c4.3-5,10.4-16.4,13.1-31.1L611.2,417.8z M620.6,435.9
		c-3.3,0-5.8,1.4-7.3,2.6l-3.1,18.2c-1,5.6,1.9,9.6,5.7,9.6c5.9,0,9.7-6.6,11.1-14.8C628.4,443.2,626.6,435.9,620.6,435.9z"/>
	<path fill="#332F69" d="M691,432.6c7.2,0,8,6.6,6.5,15.3l-2.4,14.1c-0.5,2.4-0.3,4.2,1,4.2c1.2,0,3.4-1.5,4.1-2.3v2.4
		c-2.1,2.1-4.8,3.6-6.7,3.6c-3.6,0-5.1-3.1-4.4-7.2l2.5-14.3c1.4-7.6,0.9-11-3.5-11c-3.3,0-9,4.7-10.8,15.9l-2.8,15.3h-5.7l3.5-20.2
		c1.3-7.6,0.9-11-3.5-11c-3.4,0-9,4.7-10.8,15.9l-2.8,15.3h-5.8l4.9-27.7c0.4-2.5,0.2-4.3-1.1-4.3c-1.2,0-3.4,1.5-4.1,2.4v-2.5
		c2-2.1,4.7-3.5,6.7-3.5c3.6,0,5.1,3,4.4,7.1l-0.2,0.9c2.6-4.8,7.2-8.4,11.6-8.4c5.4,0,7.2,3.7,7.1,9.5
		C681.5,436.3,686.6,432.6,691,432.6z"/>
	<path fill="#332F69" d="M716.3,470.4c-8.6,0-12.5-8.5-10.7-18.9c2-10.4,10.4-18.8,19.1-18.8c2.8,0,4.4,0.5,6.7,1.7h5.7l-4.8,27.7
		c-0.4,2.4-0.3,4.2,1.1,4.2c1.1,0,3.3-1.5,4.1-2.3v2.4c-2.1,2.1-4.9,3.6-6.8,3.6c-2.9,0-4.3-1.9-4.5-4.7
		C723.5,468.2,719.5,470.4,716.3,470.4z M730.5,438.4c-1.1-1.1-3.1-2.6-6.4-2.6c-6.1,0-10.4,7.3-11.8,15.5c-1.5,8.2,0,14.8,5.9,14.8
		c3.9,0,8.1-4,9.2-9.6L730.5,438.4z"/>
	<path fill="#332F69" d="M752.4,458.7c-0.8,4.9-0.2,7.5,2.3,7.5c1.3,0,3.6-1,6.5-4.6l0.1,2.8c-3,4-6.9,6-9.2,6
		c-4.6,0-6.8-3.6-5.4-11.6l3.6-20.8h-6.7l0.7-3.6h6.7l2.9-16.5h5.7l-2.8,16.5h8.2l-0.7,3.6h-8.2L752.4,458.7z"/>
	<path fill="#332F69" d="M778,458.7c-0.8,4.9-0.2,7.5,2.3,7.5c1.3,0,3.6-1,6.5-4.6l0.1,2.8c-3,4-6.9,6-9.2,6
		c-4.6,0-6.8-3.6-5.4-11.6l3.6-20.8h-6.7l0.7-3.6h6.7l2.9-16.5h5.7l-2.8,16.5h8.2l-0.7,3.6h-8.2L778,458.7z"/>
	<path fill="#332F69" d="M807.4,466.2c2.6,0,6.6-2.1,9.4-4.7l0.9,2.1c-3.4,3.8-8.5,6.8-13,6.8c-8.5,0-12.8-8.5-11-18.9
		c2.1-10.9,10.5-18.8,17.7-18.8c5.5,0,8.4,4,7.5,8.9c-0.9,5.4-6.9,11.8-19.7,14.5C799.2,462.2,801.8,466.2,807.4,466.2z
		 M813.8,441.5c0.4-2.7-0.5-4.8-3.1-4.8c-4.7,0-9.3,5.6-10.9,14.8c-0.1,0.6-0.2,1.1-0.3,1.6C808.6,451,813,445.6,813.8,441.5z"/>
	<path fill="#332F69" d="M845.5,432.6c4.6,0,5.7,3.8,5.1,6.5c-0.2,1.3-1.3,3.5-4.1,3.5c-1.9,0-3.1-1.5-2.8-3.3
		c0.2-1.4,0.1-2.2-0.9-2.2c-3,0-7.8,6.9-10.5,21.5l-1.7,10h-5.5l4.9-27.7c0.4-2.5,0.2-4.3-1.1-4.3c-1.2,0-3.4,1.5-4.1,2.4v-2.5
		c2-2.1,4.7-3.5,6.7-3.5c3.6,0,4.7,3,4,7.1l-0.5,2.6C837.6,436.2,841.6,432.6,845.5,432.6z"/>
	<path fill="#332F69" d="M858.6,470.4c-6.4,0-9.4-4.2-8.9-7c0.3-1.5,1.4-2.4,2.9-2.4c3.8,0,0.2,6.1,7.2,6.1c3,0,5.2-2.7,5.6-4.9
		c0.5-2.8-1.5-5.9-3-7.2l-3.7-3.6c-2.4-2.3-4-6.1-3.4-9.4c0.7-4.6,4.4-9.4,11.2-9.4c5.6,0,7.3,3.7,7,6.1c-0.2,1.2-1.1,2.1-2.3,2.1
		c-3.6,0-0.5-5.4-5.9-5.4c-2.3,0-4.6,1.8-5.1,4.5c-0.5,2.7,0.6,4.3,3.1,6.8l3.7,3.5c2.7,2.6,4,6.4,3.4,9.6
		C869.2,466.8,863.5,470.4,858.6,470.4z"/>
</g>
</svg>
